<svg xmlns="http://www.w3.org/2000/svg" viewBox="0 0 200 48" role="img" aria-label="Colissimo — La Poste">
  <rect width="200" height="48" rx="8" fill="#FFCC00"/>
  <!-- Oiseau La Poste (simplifié) -->
  <g fill="#003DA5" transform="translate(10,8)">
    <path d="M16.2 4.2c-1.8 3.4-5.2 6.3-9.6 8.2 2.6.3 4.9-.2 6.7-1.4-.2 2.4-1.4 4.6-3.4 6.4 3.8-.6 6.8-2.6 8.6-5.4 1.1 1.8 1.4 3.8.8 5.9 3.2-2.2 5-5.4 5-9.1 0-1.6-.4-3.1-1.1-4.4-.8-.1-2.2-.2-6.9-.2z"/>
    <circle cx="18.8" cy="6.2" r="1.35"/>
  </g>
  <text x="44" y="31" fill="#003DA5" font-family="Arial, Helvetica, sans-serif" font-size="18" font-weight="700" letter-spacing="0.4">Colissimo</text>
</svg>
